<svg id="Picture" xmlns="http://www.w3.org/2000/svg" xmlns:xlink="http://www.w3.org/1999/xlink" viewBox="0 0 129.4 171.88"><defs><style>.cls-1,.cls-10,.cls-11,.cls-2,.cls-3,.cls-4{fill:none;}.cls-10,.cls-11,.cls-2,.cls-3,.cls-4{stroke:#a0262a;stroke-linecap:round;stroke-width:0.5px;}.cls-3{stroke-dasharray:0.51 2.03;}.cls-4{stroke-dasharray:0.5 2;}.cls-5{clip-path:url(#clip-path);}.cls-6{fill:#bcbec0;}.cls-7{fill:#ffd64f;}.cls-8{fill:#69767e;}.cls-9{fill:#a0262a;}.cls-10{stroke-dasharray:0.5 1.99;}.cls-11{stroke-dasharray:0.5 1.99;}</style><clipPath id="clip-path"><rect class="cls-1" x="58.34" y="44.59" width="12.19" height="23.1"/></clipPath></defs><title>wealthGap</title><g id="AFP"><line class="cls-2" x1="72.08" y1="69.25" x2="72.26" y2="69.42"/><line class="cls-3" x1="73.72" y1="70.83" x2="96.73" y2="93.03"/><line class="cls-2" x1="97.46" y1="93.74" x2="97.64" y2="93.91"/><line class="cls-2" x1="57.12" y1="68.18" x2="56.96" y2="68.37"/><line class="cls-4" x1="55.64" y1="69.87" x2="36.57" y2="91.69"/><line class="cls-2" x1="35.91" y1="92.45" x2="35.75" y2="92.63"/></g><g class="cls-5"><path class="cls-6" d="M59,72c0.43,1.73-.34,4.44-1.89,6.58l4.16,2.33c1.93-2.83,3.73-5.29,3.65-9.4Z"/><path class="cls-6" d="M57.08,78.53l4.16,2.33s2.22,2.37,1,4.67l-6.85-4.24Z"/><path class="cls-6" d="M62.56,72.28c2.88,4.07,4.79,6.73,5.67,9l4.44-1.7a27.24,27.24,0,0,0-4.81-9Z"/><path class="cls-6" d="M68.29,81.2l4.44-1.72S76,79.28,77,81.69l-7.64,2.58Z"/><path class="cls-6" d="M70.49,59.66c0-1.6-2.72-2.9-6.08-2.9s-6.07,1.3-6.07,2.9V72.12H70.55Z"/><path class="cls-6" d="M62.32,57.25s2.36,8.16,2.36,7.79,2.17-8.16,2.17-8.16Z"/><path class="cls-7" d="M64.68,65c0-.15.36-1.51,0.78-3.07l-0.59-2.36,0.63-2.26H63.24L63.66,58l0.74,1.63-0.45,3.17A20.08,20.08,0,0,0,64.68,65Z"/><ellipse class="cls-6" cx="64.31" cy="53.52" rx="3.75" ry="4.45"/><path class="cls-6" d="M62.26,62.23a33.26,33.26,0,0,0-6.76,4.31L52.7,63.08S57.27,59,60,57.77Z"/><path class="cls-7" d="M58.38,54.14a23,23,0,0,0,5.26-2,63.57,63.57,0,0,0,7.11-4L66.27,49l-2.92-3.12-4.48,3,0.78,3.21Z"/><polygon class="cls-8" points="59.65 52.09 66.27 48.98 65 47.68 59.3 50.75 59.65 52.09"/></g><path class="cls-9" d="M24.62,131.86v3.44H20.76v-3.44a1.51,1.51,0,0,1,1.48-1.55h0a1.28,1.28,0,0,1-.82-1.2,1.22,1.22,0,1,1,2.44,0,1.27,1.27,0,0,1-.82,1.2h0A1.51,1.51,0,0,1,24.62,131.86Z"/><path class="cls-9" d="M29.18,131.86v3.44H25.32v-3.44a1.51,1.51,0,0,1,1.48-1.55h0a1.28,1.28,0,0,1-.81-1.2,1.22,1.22,0,1,1,2.44,0,1.27,1.27,0,0,1-.81,1.2h0A1.51,1.51,0,0,1,29.18,131.86Z"/><path class="cls-9" d="M33.74,131.86v3.44H29.89v-3.44a1.51,1.51,0,0,1,1.48-1.55h0a1.28,1.28,0,0,1-.81-1.2,1.22,1.22,0,1,1,2.44,0,1.27,1.27,0,0,1-.81,1.2h0A1.51,1.51,0,0,1,33.74,131.86Z"/><path class="cls-9" d="M38.31,131.86v3.44H34.45v-3.44a1.51,1.51,0,0,1,1.48-1.55h0a1.28,1.28,0,0,1-.82-1.2,1.22,1.22,0,1,1,2.44,0,1.27,1.27,0,0,1-.82,1.2h0A1.51,1.51,0,0,1,38.31,131.86Z"/><path class="cls-9" d="M42.87,131.86v3.44H39v-3.44a1.51,1.51,0,0,1,1.48-1.55h0a1.28,1.28,0,0,1-.81-1.2,1.22,1.22,0,1,1,2.44,0,1.27,1.27,0,0,1-.81,1.2h0A1.51,1.51,0,0,1,42.87,131.86Z"/><path class="cls-9" d="M47.43,131.86v3.44H43.58v-3.44a1.51,1.51,0,0,1,1.48-1.55h0a1.28,1.28,0,0,1-.82-1.2,1.22,1.22,0,1,1,2.44,0,1.27,1.27,0,0,1-.82,1.2h0A1.51,1.51,0,0,1,47.43,131.86Z"/><path class="cls-9" d="M52,131.86v3.44H48.15v-3.44a1.51,1.51,0,0,1,1.48-1.55h0a1.28,1.28,0,0,1-.81-1.2,1.22,1.22,0,1,1,2.44,0,1.27,1.27,0,0,1-.81,1.2h0A1.51,1.51,0,0,1,52,131.86Z"/><path class="cls-9" d="M56.57,131.86v3.44H52.71v-3.44a1.51,1.51,0,0,1,1.48-1.55h0a1.28,1.28,0,0,1-.82-1.2,1.22,1.22,0,1,1,2.44,0,1.27,1.27,0,0,1-.82,1.2h0A1.51,1.51,0,0,1,56.57,131.86Z"/><path class="cls-9" d="M61.22,131.86v3.44H57.36v-3.44a1.51,1.51,0,0,1,1.48-1.55h0a1.28,1.28,0,0,1-.81-1.2,1.22,1.22,0,1,1,2.44,0,1.27,1.27,0,0,1-.81,1.2h0A1.51,1.51,0,0,1,61.22,131.86Z"/><path class="cls-9" d="M65.78,131.86v3.44H61.93v-3.44a1.51,1.51,0,0,1,1.48-1.55h0a1.28,1.28,0,0,1-.82-1.2,1.22,1.22,0,1,1,2.44,0,1.27,1.27,0,0,1-.82,1.2h0A1.51,1.51,0,0,1,65.78,131.86Z"/><path class="cls-9" d="M24.62,123.59V127H20.76v-3.44A1.51,1.51,0,0,1,22.24,122h0a1.28,1.28,0,0,1-.82-1.2,1.22,1.22,0,1,1,2.44,0,1.27,1.27,0,0,1-.82,1.2h0A1.51,1.51,0,0,1,24.62,123.59Z"/><path class="cls-9" d="M29.18,123.59V127H25.32v-3.44A1.51,1.51,0,0,1,26.8,122h0a1.28,1.28,0,0,1-.81-1.2,1.22,1.22,0,1,1,2.44,0,1.27,1.27,0,0,1-.81,1.2h0A1.51,1.51,0,0,1,29.18,123.59Z"/><path class="cls-9" d="M33.74,123.59V127H29.89v-3.44A1.51,1.51,0,0,1,31.37,122h0a1.28,1.28,0,0,1-.81-1.2,1.22,1.22,0,1,1,2.44,0,1.27,1.27,0,0,1-.81,1.2h0A1.51,1.51,0,0,1,33.74,123.59Z"/><path class="cls-9" d="M38.31,123.59V127H34.45v-3.44A1.51,1.51,0,0,1,35.93,122h0a1.28,1.28,0,0,1-.82-1.2,1.22,1.22,0,1,1,2.44,0,1.27,1.27,0,0,1-.82,1.2h0A1.51,1.51,0,0,1,38.31,123.59Z"/><path class="cls-9" d="M42.87,123.59V127H39v-3.44A1.51,1.51,0,0,1,40.5,122h0a1.28,1.28,0,0,1-.81-1.2,1.22,1.22,0,1,1,2.44,0,1.27,1.27,0,0,1-.81,1.2h0A1.51,1.51,0,0,1,42.87,123.59Z"/><path class="cls-9" d="M47.43,123.59V127H43.58v-3.44A1.51,1.51,0,0,1,45.06,122h0a1.28,1.28,0,0,1-.82-1.2,1.22,1.22,0,1,1,2.44,0,1.27,1.27,0,0,1-.82,1.2h0A1.51,1.51,0,0,1,47.43,123.59Z"/><path class="cls-9" d="M52,123.59V127H48.15v-3.44A1.51,1.51,0,0,1,49.62,122h0a1.28,1.28,0,0,1-.81-1.2,1.22,1.22,0,1,1,2.44,0,1.27,1.27,0,0,1-.81,1.2h0A1.51,1.51,0,0,1,52,123.59Z"/><path class="cls-9" d="M56.57,123.59V127H52.71v-3.44A1.51,1.51,0,0,1,54.19,122h0a1.28,1.28,0,0,1-.82-1.2,1.22,1.22,0,1,1,2.44,0A1.27,1.27,0,0,1,55,122h0A1.51,1.51,0,0,1,56.57,123.59Z"/><path class="cls-9" d="M61.22,123.59V127H57.36v-3.44A1.51,1.51,0,0,1,58.84,122h0a1.28,1.28,0,0,1-.81-1.2,1.22,1.22,0,1,1,2.44,0,1.27,1.27,0,0,1-.81,1.2h0A1.51,1.51,0,0,1,61.22,123.59Z"/><path class="cls-9" d="M65.78,123.59V127H61.93v-3.44A1.51,1.51,0,0,1,63.4,122h0a1.28,1.28,0,0,1-.82-1.2,1.22,1.22,0,1,1,2.44,0,1.27,1.27,0,0,1-.82,1.2h0A1.51,1.51,0,0,1,65.78,123.59Z"/><path class="cls-9" d="M24.62,115.32v3.44H20.76v-3.44a1.51,1.51,0,0,1,1.48-1.55h0a1.28,1.28,0,0,1-.82-1.2,1.22,1.22,0,1,1,2.44,0,1.27,1.27,0,0,1-.82,1.2h0A1.51,1.51,0,0,1,24.62,115.32Z"/><path class="cls-9" d="M29.18,115.32v3.44H25.32v-3.44a1.51,1.51,0,0,1,1.48-1.55h0a1.28,1.28,0,0,1-.81-1.2,1.22,1.22,0,1,1,2.44,0,1.27,1.27,0,0,1-.81,1.2h0A1.51,1.51,0,0,1,29.18,115.32Z"/><path class="cls-9" d="M33.74,115.32v3.44H29.89v-3.44a1.51,1.51,0,0,1,1.48-1.55h0a1.28,1.28,0,0,1-.81-1.2,1.22,1.22,0,1,1,2.44,0,1.27,1.27,0,0,1-.81,1.2h0A1.51,1.51,0,0,1,33.74,115.32Z"/><path class="cls-9" d="M38.31,115.32v3.44H34.45v-3.44a1.51,1.51,0,0,1,1.48-1.55h0a1.28,1.28,0,0,1-.82-1.2,1.22,1.22,0,1,1,2.44,0,1.27,1.27,0,0,1-.82,1.2h0A1.51,1.51,0,0,1,38.31,115.32Z"/><path class="cls-9" d="M42.87,115.32v3.44H39v-3.44a1.51,1.51,0,0,1,1.48-1.55h0a1.28,1.28,0,0,1-.81-1.2,1.22,1.22,0,1,1,2.44,0,1.27,1.27,0,0,1-.81,1.2h0A1.51,1.51,0,0,1,42.87,115.32Z"/><path class="cls-9" d="M47.43,115.32v3.44H43.58v-3.44a1.51,1.51,0,0,1,1.48-1.55h0a1.28,1.28,0,0,1-.82-1.2,1.22,1.22,0,1,1,2.44,0,1.27,1.27,0,0,1-.82,1.2h0A1.51,1.51,0,0,1,47.43,115.32Z"/><path class="cls-9" d="M52,115.32v3.44H48.15v-3.44a1.51,1.51,0,0,1,1.48-1.55h0a1.28,1.28,0,0,1-.81-1.2,1.22,1.22,0,1,1,2.44,0,1.27,1.27,0,0,1-.81,1.2h0A1.51,1.51,0,0,1,52,115.32Z"/><path class="cls-9" d="M56.57,115.32v3.44H52.71v-3.44a1.51,1.51,0,0,1,1.48-1.55h0a1.28,1.28,0,0,1-.82-1.2,1.22,1.22,0,1,1,2.44,0,1.27,1.27,0,0,1-.82,1.2h0A1.51,1.51,0,0,1,56.57,115.32Z"/><path class="cls-9" d="M61.22,115.32v3.44H57.36v-3.44a1.51,1.51,0,0,1,1.48-1.55h0a1.28,1.28,0,0,1-.81-1.2,1.22,1.22,0,1,1,2.44,0,1.27,1.27,0,0,1-.81,1.2h0A1.51,1.51,0,0,1,61.22,115.32Z"/><path class="cls-9" d="M65.78,115.32v3.44H61.93v-3.44a1.51,1.51,0,0,1,1.48-1.55h0a1.28,1.28,0,0,1-.82-1.2,1.22,1.22,0,1,1,2.44,0,1.27,1.27,0,0,1-.82,1.2h0A1.51,1.51,0,0,1,65.78,115.32Z"/><path class="cls-9" d="M24.62,107v3.44H20.76V107a1.51,1.51,0,0,1,1.48-1.55h0a1.28,1.28,0,0,1-.82-1.2,1.22,1.22,0,1,1,2.44,0,1.27,1.27,0,0,1-.82,1.2h0A1.51,1.51,0,0,1,24.62,107Z"/><path class="cls-9" d="M29.18,107v3.44H25.32V107a1.51,1.51,0,0,1,1.48-1.55h0a1.28,1.28,0,0,1-.81-1.2,1.22,1.22,0,1,1,2.44,0,1.27,1.27,0,0,1-.81,1.2h0A1.51,1.51,0,0,1,29.18,107Z"/><path class="cls-9" d="M33.74,107v3.44H29.89V107a1.51,1.51,0,0,1,1.48-1.55h0a1.28,1.28,0,0,1-.81-1.2,1.22,1.22,0,1,1,2.44,0,1.27,1.27,0,0,1-.81,1.2h0A1.51,1.51,0,0,1,33.74,107Z"/><path class="cls-9" d="M38.31,107v3.44H34.45V107a1.51,1.51,0,0,1,1.48-1.55h0a1.28,1.28,0,0,1-.82-1.2,1.22,1.22,0,1,1,2.44,0,1.27,1.27,0,0,1-.82,1.2h0A1.51,1.51,0,0,1,38.31,107Z"/><path class="cls-9" d="M42.87,107v3.44H39V107a1.51,1.51,0,0,1,1.48-1.55h0a1.28,1.28,0,0,1-.81-1.2,1.22,1.22,0,1,1,2.44,0,1.27,1.27,0,0,1-.81,1.2h0A1.51,1.51,0,0,1,42.87,107Z"/><path class="cls-9" d="M47.43,107v3.44H43.58V107a1.51,1.51,0,0,1,1.48-1.55h0a1.28,1.28,0,0,1-.82-1.2,1.22,1.22,0,1,1,2.44,0,1.27,1.27,0,0,1-.82,1.2h0A1.51,1.51,0,0,1,47.43,107Z"/><path class="cls-9" d="M52,107v3.44H48.15V107a1.51,1.51,0,0,1,1.48-1.55h0a1.28,1.28,0,0,1-.81-1.2,1.22,1.22,0,1,1,2.44,0,1.27,1.27,0,0,1-.81,1.2h0A1.51,1.51,0,0,1,52,107Z"/><path class="cls-9" d="M56.57,107v3.44H52.71V107a1.51,1.51,0,0,1,1.48-1.55h0a1.28,1.28,0,0,1-.82-1.2,1.22,1.22,0,1,1,2.44,0,1.27,1.27,0,0,1-.82,1.2h0A1.51,1.51,0,0,1,56.57,107Z"/><path class="cls-9" d="M61.22,107v3.44H57.36V107a1.51,1.51,0,0,1,1.48-1.55h0a1.28,1.28,0,0,1-.81-1.2,1.22,1.22,0,1,1,2.44,0,1.27,1.27,0,0,1-.81,1.2h0A1.51,1.51,0,0,1,61.22,107Z"/><path class="cls-9" d="M65.78,107v3.44H61.93V107a1.51,1.51,0,0,1,1.48-1.55h0a1.28,1.28,0,0,1-.82-1.2,1.22,1.22,0,1,1,2.44,0,1.27,1.27,0,0,1-.82,1.2h0A1.51,1.51,0,0,1,65.78,107Z"/><path class="cls-9" d="M24.62,98.77v3.44H20.76V98.77a1.51,1.51,0,0,1,1.48-1.55h0a1.28,1.28,0,0,1-.82-1.2,1.22,1.22,0,1,1,2.44,0,1.27,1.27,0,0,1-.82,1.2h0A1.51,1.51,0,0,1,24.62,98.77Z"/><path class="cls-9" d="M29.18,98.77v3.44H25.32V98.77a1.51,1.51,0,0,1,1.48-1.55h0A1.28,1.28,0,0,1,26,96a1.22,1.22,0,1,1,2.44,0,1.27,1.27,0,0,1-.81,1.2h0A1.51,1.51,0,0,1,29.18,98.77Z"/><path class="cls-9" d="M33.74,98.77v3.44H29.89V98.77a1.51,1.51,0,0,1,1.48-1.55h0A1.28,1.28,0,0,1,30.6,96,1.22,1.22,0,1,1,33,96a1.27,1.27,0,0,1-.81,1.2h0A1.51,1.51,0,0,1,33.74,98.77Z"/><path class="cls-9" d="M38.31,98.77v3.44H34.45V98.77a1.51,1.51,0,0,1,1.48-1.55h0a1.28,1.28,0,0,1-.82-1.2,1.22,1.22,0,1,1,2.44,0,1.27,1.27,0,0,1-.82,1.2h0A1.51,1.51,0,0,1,38.31,98.77Z"/><path class="cls-9" d="M42.87,98.77v3.44H39V98.77a1.51,1.51,0,0,1,1.48-1.55h0a1.28,1.28,0,0,1-.81-1.2,1.22,1.22,0,1,1,2.44,0,1.27,1.27,0,0,1-.81,1.2h0A1.51,1.51,0,0,1,42.87,98.77Z"/><path class="cls-9" d="M47.43,98.77v3.44H43.58V98.77a1.51,1.51,0,0,1,1.48-1.55h0a1.28,1.28,0,0,1-.82-1.2,1.22,1.22,0,1,1,2.44,0,1.27,1.27,0,0,1-.82,1.2h0A1.51,1.51,0,0,1,47.43,98.77Z"/><path class="cls-9" d="M52,98.77v3.44H48.15V98.77a1.51,1.51,0,0,1,1.48-1.55h0a1.28,1.28,0,0,1-.81-1.2,1.22,1.22,0,1,1,2.44,0,1.27,1.27,0,0,1-.81,1.2h0A1.51,1.51,0,0,1,52,98.77Z"/><path class="cls-9" d="M56.57,98.77v3.44H52.71V98.77a1.51,1.51,0,0,1,1.48-1.55h0a1.28,1.28,0,0,1-.82-1.2,1.22,1.22,0,1,1,2.44,0,1.27,1.27,0,0,1-.82,1.2h0A1.51,1.51,0,0,1,56.57,98.77Z"/><path class="cls-9" d="M61.22,98.77v3.44H57.36V98.77a1.51,1.51,0,0,1,1.48-1.55h0a1.28,1.28,0,0,1-.81-1.2,1.22,1.22,0,1,1,2.44,0,1.27,1.27,0,0,1-.81,1.2h0A1.51,1.51,0,0,1,61.22,98.77Z"/><path class="cls-9" d="M65.78,98.77v3.44H61.93V98.77a1.51,1.51,0,0,1,1.48-1.55h0a1.28,1.28,0,0,1-.82-1.2,1.22,1.22,0,1,1,2.44,0,1.27,1.27,0,0,1-.82,1.2h0A1.51,1.51,0,0,1,65.78,98.77Z"/><path class="cls-9" d="M71.64,132.24v3.44H67.78v-3.44a1.51,1.51,0,0,1,1.48-1.55h0a1.28,1.28,0,0,1-.82-1.2,1.22,1.22,0,1,1,2.44,0,1.27,1.27,0,0,1-.82,1.2h0A1.51,1.51,0,0,1,71.64,132.24Z"/><path class="cls-9" d="M76.2,132.24v3.44H72.35v-3.44a1.51,1.51,0,0,1,1.48-1.55h0a1.28,1.28,0,0,1-.81-1.2,1.22,1.22,0,1,1,2.44,0,1.27,1.27,0,0,1-.81,1.2h0A1.51,1.51,0,0,1,76.2,132.24Z"/><path class="cls-9" d="M80.77,132.24v3.44H76.91v-3.44a1.51,1.51,0,0,1,1.48-1.55h0a1.28,1.28,0,0,1-.81-1.2,1.22,1.22,0,1,1,2.44,0,1.27,1.27,0,0,1-.81,1.2h0A1.51,1.51,0,0,1,80.77,132.24Z"/><path class="cls-9" d="M85.33,132.24v3.44H81.48v-3.44A1.51,1.51,0,0,1,83,130.69h0a1.28,1.28,0,0,1-.82-1.2,1.22,1.22,0,1,1,2.44,0,1.27,1.27,0,0,1-.82,1.2h0A1.51,1.51,0,0,1,85.33,132.24Z"/><path class="cls-9" d="M89.9,132.24v3.44H86v-3.44a1.51,1.51,0,0,1,1.48-1.55h0a1.28,1.28,0,0,1-.81-1.2,1.22,1.22,0,1,1,2.44,0,1.27,1.27,0,0,1-.81,1.2h0A1.51,1.51,0,0,1,89.9,132.24Z"/><path class="cls-9" d="M94.46,132.24v3.44H90.6v-3.44a1.51,1.51,0,0,1,1.48-1.55h0a1.28,1.28,0,0,1-.82-1.2,1.22,1.22,0,1,1,2.44,0,1.27,1.27,0,0,1-.82,1.2h0A1.51,1.51,0,0,1,94.46,132.24Z"/><path class="cls-9" d="M99,132.24v3.44H95.17v-3.44a1.51,1.51,0,0,1,1.48-1.55h0a1.28,1.28,0,0,1-.81-1.2,1.22,1.22,0,1,1,2.44,0,1.27,1.27,0,0,1-.81,1.2h0A1.51,1.51,0,0,1,99,132.24Z"/><path class="cls-9" d="M103.59,132.24v3.44H99.73v-3.44a1.51,1.51,0,0,1,1.48-1.55h0a1.28,1.28,0,0,1-.82-1.2,1.22,1.22,0,1,1,2.44,0,1.27,1.27,0,0,1-.82,1.2h0A1.51,1.51,0,0,1,103.59,132.24Z"/><path class="cls-9" d="M108.24,132.24v3.44h-3.85v-3.44a1.51,1.51,0,0,1,1.48-1.55h0a1.28,1.28,0,0,1-.81-1.2,1.22,1.22,0,1,1,2.44,0,1.27,1.27,0,0,1-.81,1.2h0A1.51,1.51,0,0,1,108.24,132.24Z"/><path class="cls-9" d="M112.81,132.24v3.44H109v-3.44a1.51,1.51,0,0,1,1.48-1.55h0a1.28,1.28,0,0,1-.82-1.2,1.22,1.22,0,1,1,2.44,0,1.27,1.27,0,0,1-.82,1.2h0A1.51,1.51,0,0,1,112.81,132.24Z"/><path class="cls-9" d="M71.64,124v3.44H67.78V124a1.51,1.51,0,0,1,1.48-1.55h0a1.28,1.28,0,0,1-.82-1.2,1.22,1.22,0,1,1,2.44,0,1.27,1.27,0,0,1-.82,1.2h0A1.51,1.51,0,0,1,71.64,124Z"/><path class="cls-9" d="M76.2,124v3.44H72.35V124a1.51,1.51,0,0,1,1.48-1.55h0a1.28,1.28,0,0,1-.81-1.2,1.22,1.22,0,1,1,2.44,0,1.27,1.27,0,0,1-.81,1.2h0A1.51,1.51,0,0,1,76.2,124Z"/><path class="cls-9" d="M80.77,124v3.44H76.91V124a1.51,1.51,0,0,1,1.48-1.55h0a1.28,1.28,0,0,1-.81-1.2,1.22,1.22,0,1,1,2.44,0,1.27,1.27,0,0,1-.81,1.2h0A1.51,1.51,0,0,1,80.77,124Z"/><path class="cls-9" d="M85.33,124v3.44H81.48V124A1.51,1.51,0,0,1,83,122.42h0a1.28,1.28,0,0,1-.82-1.2,1.22,1.22,0,1,1,2.44,0,1.27,1.27,0,0,1-.82,1.2h0A1.51,1.51,0,0,1,85.33,124Z"/><path class="cls-9" d="M89.9,124v3.44H86V124a1.51,1.51,0,0,1,1.48-1.55h0a1.28,1.28,0,0,1-.81-1.2,1.22,1.22,0,1,1,2.44,0,1.27,1.27,0,0,1-.81,1.2h0A1.51,1.51,0,0,1,89.9,124Z"/><path class="cls-9" d="M94.46,124v3.44H90.6V124a1.51,1.51,0,0,1,1.48-1.55h0a1.28,1.28,0,0,1-.82-1.2,1.22,1.22,0,1,1,2.44,0,1.27,1.27,0,0,1-.82,1.2h0A1.51,1.51,0,0,1,94.46,124Z"/><path class="cls-9" d="M99,124v3.44H95.17V124a1.51,1.51,0,0,1,1.48-1.55h0a1.28,1.28,0,0,1-.81-1.2,1.22,1.22,0,1,1,2.44,0,1.27,1.27,0,0,1-.81,1.2h0A1.51,1.51,0,0,1,99,124Z"/><path class="cls-9" d="M103.59,124v3.44H99.73V124a1.51,1.51,0,0,1,1.48-1.55h0a1.28,1.28,0,0,1-.82-1.2,1.22,1.22,0,1,1,2.44,0,1.27,1.27,0,0,1-.82,1.2h0A1.51,1.51,0,0,1,103.59,124Z"/><path class="cls-9" d="M108.24,124v3.44h-3.85V124a1.51,1.51,0,0,1,1.48-1.55h0a1.28,1.28,0,0,1-.81-1.2,1.22,1.22,0,1,1,2.44,0,1.27,1.27,0,0,1-.81,1.2h0A1.51,1.51,0,0,1,108.24,124Z"/><path class="cls-9" d="M112.81,124v3.44H109V124a1.51,1.51,0,0,1,1.48-1.55h0a1.28,1.28,0,0,1-.82-1.2,1.22,1.22,0,1,1,2.44,0,1.27,1.27,0,0,1-.82,1.2h0A1.51,1.51,0,0,1,112.81,124Z"/><path class="cls-9" d="M71.64,115.7v3.44H67.78V115.7a1.51,1.51,0,0,1,1.48-1.55h0a1.28,1.28,0,0,1-.82-1.2,1.22,1.22,0,1,1,2.44,0,1.27,1.27,0,0,1-.82,1.2h0A1.51,1.51,0,0,1,71.64,115.7Z"/><path class="cls-9" d="M76.2,115.7v3.44H72.35V115.7a1.51,1.51,0,0,1,1.48-1.55h0a1.28,1.28,0,0,1-.81-1.2,1.22,1.22,0,1,1,2.44,0,1.27,1.27,0,0,1-.81,1.2h0A1.51,1.51,0,0,1,76.2,115.7Z"/><path class="cls-9" d="M80.77,115.7v3.44H76.91V115.7a1.51,1.51,0,0,1,1.48-1.55h0a1.28,1.28,0,0,1-.81-1.2,1.22,1.22,0,1,1,2.44,0,1.27,1.27,0,0,1-.81,1.2h0A1.51,1.51,0,0,1,80.77,115.7Z"/><path class="cls-9" d="M85.33,115.7v3.44H81.48V115.7A1.51,1.51,0,0,1,83,114.15h0a1.28,1.28,0,0,1-.82-1.2,1.22,1.22,0,1,1,2.44,0,1.27,1.27,0,0,1-.82,1.2h0A1.51,1.51,0,0,1,85.33,115.7Z"/><path class="cls-9" d="M89.9,115.7v3.44H86V115.7a1.51,1.51,0,0,1,1.48-1.55h0a1.28,1.28,0,0,1-.81-1.2,1.22,1.22,0,1,1,2.44,0,1.27,1.27,0,0,1-.81,1.2h0A1.51,1.51,0,0,1,89.9,115.7Z"/><path class="cls-9" d="M94.46,115.7v3.44H90.6V115.7a1.51,1.51,0,0,1,1.48-1.55h0a1.28,1.28,0,0,1-.82-1.2,1.22,1.22,0,1,1,2.44,0,1.27,1.27,0,0,1-.82,1.2h0A1.51,1.51,0,0,1,94.46,115.7Z"/><path class="cls-9" d="M99,115.7v3.44H95.17V115.7a1.51,1.51,0,0,1,1.48-1.55h0a1.28,1.28,0,0,1-.81-1.2,1.22,1.22,0,1,1,2.44,0,1.27,1.27,0,0,1-.81,1.2h0A1.51,1.51,0,0,1,99,115.7Z"/><path class="cls-9" d="M103.59,115.7v3.44H99.73V115.7a1.51,1.51,0,0,1,1.48-1.55h0a1.28,1.28,0,0,1-.82-1.2,1.22,1.22,0,1,1,2.44,0,1.27,1.27,0,0,1-.82,1.2h0A1.51,1.51,0,0,1,103.59,115.7Z"/><path class="cls-9" d="M108.24,115.7v3.44h-3.85V115.7a1.51,1.51,0,0,1,1.48-1.55h0a1.28,1.28,0,0,1-.81-1.2,1.22,1.22,0,1,1,2.44,0,1.27,1.27,0,0,1-.81,1.2h0A1.51,1.51,0,0,1,108.24,115.7Z"/><path class="cls-9" d="M112.81,115.7v3.44H109V115.7a1.51,1.51,0,0,1,1.48-1.55h0a1.28,1.28,0,0,1-.82-1.2,1.22,1.22,0,1,1,2.44,0,1.27,1.27,0,0,1-.82,1.2h0A1.51,1.51,0,0,1,112.81,115.7Z"/><path class="cls-9" d="M71.64,107.43v3.44H67.78v-3.44a1.51,1.51,0,0,1,1.48-1.55h0a1.28,1.28,0,0,1-.82-1.2,1.22,1.22,0,1,1,2.44,0,1.27,1.27,0,0,1-.82,1.2h0A1.51,1.51,0,0,1,71.64,107.43Z"/><path class="cls-9" d="M76.2,107.43v3.44H72.35v-3.44a1.51,1.51,0,0,1,1.48-1.55h0a1.28,1.28,0,0,1-.81-1.2,1.22,1.22,0,1,1,2.44,0,1.27,1.27,0,0,1-.81,1.2h0A1.51,1.51,0,0,1,76.2,107.43Z"/><path class="cls-9" d="M80.77,107.43v3.44H76.91v-3.44a1.51,1.51,0,0,1,1.48-1.55h0a1.28,1.28,0,0,1-.81-1.2,1.22,1.22,0,1,1,2.44,0,1.27,1.27,0,0,1-.81,1.2h0A1.51,1.51,0,0,1,80.77,107.43Z"/><path class="cls-9" d="M85.33,107.43v3.44H81.48v-3.44A1.51,1.51,0,0,1,83,105.88h0a1.28,1.28,0,0,1-.82-1.2,1.22,1.22,0,1,1,2.44,0,1.27,1.27,0,0,1-.82,1.2h0A1.51,1.51,0,0,1,85.33,107.43Z"/><path class="cls-9" d="M89.9,107.43v3.44H86v-3.44a1.51,1.51,0,0,1,1.48-1.55h0a1.28,1.28,0,0,1-.81-1.2,1.22,1.22,0,1,1,2.44,0,1.27,1.27,0,0,1-.81,1.2h0A1.51,1.51,0,0,1,89.9,107.43Z"/><path class="cls-9" d="M94.46,107.43v3.44H90.6v-3.44a1.51,1.51,0,0,1,1.48-1.55h0a1.28,1.28,0,0,1-.82-1.2,1.22,1.22,0,1,1,2.44,0,1.27,1.27,0,0,1-.82,1.2h0A1.51,1.51,0,0,1,94.46,107.43Z"/><path class="cls-9" d="M99,107.43v3.44H95.17v-3.44a1.51,1.51,0,0,1,1.48-1.55h0a1.28,1.28,0,0,1-.81-1.2,1.22,1.22,0,1,1,2.44,0,1.27,1.27,0,0,1-.81,1.2h0A1.51,1.51,0,0,1,99,107.43Z"/><path class="cls-9" d="M103.59,107.43v3.44H99.73v-3.44a1.51,1.51,0,0,1,1.48-1.55h0a1.28,1.28,0,0,1-.82-1.2,1.22,1.22,0,1,1,2.44,0,1.27,1.27,0,0,1-.82,1.2h0A1.51,1.51,0,0,1,103.59,107.43Z"/><path class="cls-9" d="M108.24,107.43v3.44h-3.85v-3.44a1.51,1.51,0,0,1,1.48-1.55h0a1.28,1.28,0,0,1-.81-1.2,1.22,1.22,0,1,1,2.44,0,1.27,1.27,0,0,1-.81,1.2h0A1.51,1.51,0,0,1,108.24,107.43Z"/><path class="cls-9" d="M112.81,107.43v3.44H109v-3.44a1.51,1.51,0,0,1,1.48-1.55h0a1.28,1.28,0,0,1-.82-1.2,1.22,1.22,0,1,1,2.44,0,1.27,1.27,0,0,1-.82,1.2h0A1.51,1.51,0,0,1,112.81,107.43Z"/><path class="cls-9" d="M71.64,99.16v3.44H67.78V99.16a1.51,1.51,0,0,1,1.48-1.55h0a1.28,1.28,0,0,1-.82-1.2,1.22,1.22,0,1,1,2.44,0,1.27,1.27,0,0,1-.82,1.2h0A1.51,1.51,0,0,1,71.64,99.16Z"/><path class="cls-9" d="M76.2,99.16v3.44H72.35V99.16a1.51,1.51,0,0,1,1.48-1.55h0a1.28,1.28,0,0,1-.81-1.2,1.22,1.22,0,1,1,2.44,0,1.27,1.27,0,0,1-.81,1.2h0A1.51,1.51,0,0,1,76.2,99.16Z"/><path class="cls-9" d="M80.77,99.16v3.44H76.91V99.16a1.51,1.51,0,0,1,1.48-1.55h0a1.28,1.28,0,0,1-.81-1.2,1.22,1.22,0,1,1,2.44,0,1.27,1.27,0,0,1-.81,1.2h0A1.51,1.51,0,0,1,80.77,99.16Z"/><path class="cls-9" d="M85.33,99.16v3.44H81.48V99.16A1.51,1.51,0,0,1,83,97.61h0a1.28,1.28,0,0,1-.82-1.2,1.22,1.22,0,1,1,2.44,0,1.27,1.27,0,0,1-.82,1.2h0A1.51,1.51,0,0,1,85.33,99.16Z"/><path class="cls-9" d="M89.9,99.16v3.44H86V99.16a1.51,1.51,0,0,1,1.48-1.55h0a1.28,1.28,0,0,1-.81-1.2,1.22,1.22,0,1,1,2.44,0,1.27,1.27,0,0,1-.81,1.2h0A1.51,1.51,0,0,1,89.9,99.16Z"/><path class="cls-9" d="M94.46,99.16v3.44H90.6V99.16a1.51,1.51,0,0,1,1.48-1.55h0a1.28,1.28,0,0,1-.82-1.2,1.22,1.22,0,1,1,2.44,0,1.27,1.27,0,0,1-.82,1.2h0A1.51,1.51,0,0,1,94.46,99.16Z"/><path class="cls-9" d="M99,99.16v3.44H95.17V99.16a1.51,1.51,0,0,1,1.48-1.55h0a1.28,1.28,0,0,1-.81-1.2,1.22,1.22,0,1,1,2.44,0,1.27,1.27,0,0,1-.81,1.2h0A1.51,1.51,0,0,1,99,99.16Z"/><path class="cls-9" d="M103.59,99.16v3.44H99.73V99.16a1.51,1.51,0,0,1,1.48-1.55h0a1.28,1.28,0,0,1-.82-1.2,1.22,1.22,0,1,1,2.44,0,1.27,1.27,0,0,1-.82,1.2h0A1.51,1.51,0,0,1,103.59,99.16Z"/><path class="cls-9" d="M108.24,99.16v3.44h-3.85V99.16a1.51,1.51,0,0,1,1.48-1.55h0a1.28,1.28,0,0,1-.81-1.2,1.22,1.22,0,1,1,2.44,0,1.27,1.27,0,0,1-.81,1.2h0A1.51,1.51,0,0,1,108.24,99.16Z"/><line class="cls-2" x1="23.06" y1="92.54" x2="23.27" y2="92.39"/><line class="cls-10" x1="24.91" y1="91.27" x2="56.8" y2="69.3"/><line class="cls-2" x1="57.62" y1="68.74" x2="57.83" y2="68.6"/><line class="cls-2" x1="72.01" y1="68.15" x2="72.22" y2="68.29"/><line class="cls-11" x1="73.9" y1="69.37" x2="110.73" y2="93.21"/><line class="cls-2" x1="111.57" y1="93.75" x2="111.78" y2="93.89"/></svg>