<svg id="Picture" xmlns="http://www.w3.org/2000/svg" viewBox="0 0 129.4 171.88"><defs><style>.cls-1{fill:#939598;}.cls-2{fill:#ffcb05;}.cls-3,.cls-4,.cls-5,.cls-7{fill:none;}.cls-3{stroke:#a0262a;stroke-miterlimit:10;}.cls-4,.cls-7{stroke:#231f20;}.cls-4,.cls-5,.cls-7{stroke-width:0.25px;}.cls-5{stroke:#a7a9ac;}.cls-6{font-size:8px;fill:#231f20;font-family:Source Sans Pro;font-style:italic;}.cls-7{fill-rule:evenodd;}</style></defs><title>wealthGap</title><rect class="cls-1" x="9.06" y="126.79" width="2.05" height="15.12"/><rect class="cls-1" x="15.51" y="116.37" width="2.05" height="25.54"/><rect class="cls-1" x="21.72" y="119.46" width="2.05" height="22.46"/><rect class="cls-1" x="28.16" y="123.22" width="2.05" height="18.7"/><rect class="cls-1" x="34.32" y="114.4" width="2.05" height="27.52"/><rect class="cls-1" x="40.82" y="109.4" width="2.05" height="32.52"/><rect class="cls-2" x="47.26" y="104.51" width="2.05" height="37.41"/><rect class="cls-1" x="53.47" y="97.5" width="2.05" height="44.42"/><rect class="cls-1" x="59.68" y="88.46" width="2.05" height="53.46"/><rect class="cls-1" x="66.13" y="104.51" width="2.05" height="37.41"/><rect class="cls-1" x="72.57" y="94.54" width="2.05" height="47.38"/><rect class="cls-1" x="78.58" y="84.63" width="2.05" height="57.28"/><rect class="cls-1" x="84.96" y="83.98" width="2.05" height="57.94"/><rect class="cls-1" x="91.34" y="74.32" width="2.05" height="67.6"/><rect class="cls-1" x="97.72" y="64.22" width="2.05" height="77.7"/><rect class="cls-1" x="104.11" y="55.4" width="2.05" height="86.52"/><rect class="cls-1" x="110.49" y="56.25" width="2.05" height="85.67"/><rect class="cls-1" x="116.87" y="45.19" width="2.05" height="96.72"/><polyline class="cls-3" points="10.09 123.22 16.53 119.45 29.19 125.66 35.34 117.21 41.84 112.09 48.29 106.97 60.71 84.63 67.15 108.12 79.6 83 85.98 82.07 92.36 70.84 98.75 56.25 105.13 49.54 111.51 56.25 117.89 41.35"/><line class="cls-4" x1="122.64" y1="142.19" x2="5.32" y2="142.19"/><line class="cls-5" x1="10.15" y1="62.83" x2="122.64" y2="62.83"/><line class="cls-5" x1="10.15" y1="76.12" x2="122.64" y2="76.12"/><line class="cls-5" x1="10.15" y1="89.32" x2="122.64" y2="89.32"/><line class="cls-5" x1="10.15" y1="102.25" x2="122.64" y2="102.25"/><line class="cls-5" x1="10.15" y1="115.45" x2="122.64" y2="115.45"/><line class="cls-5" x1="10.15" y1="129.03" x2="122.64" y2="129.03"/><line class="cls-5" x1="10.15" y1="49.54" x2="122.64" y2="49.54"/><line class="cls-5" x1="10.15" y1="36.34" x2="122.64" y2="36.34"/><text class="cls-6" transform="translate(4.61 51.13) scale(0.71 1)">7</text><text class="cls-6" transform="translate(4.61 64.56) scale(0.71 1)">6</text><text class="cls-6" transform="translate(4.64 77.99) scale(0.71 1)">5</text><text class="cls-6" transform="translate(4.61 91.41) scale(0.71 1)">4</text><text class="cls-6" transform="translate(4.66 104.84) scale(0.71 1)">3</text><text class="cls-6" transform="translate(4.67 118.27) scale(0.71 1)">2</text><text class="cls-6" transform="translate(4.61 131.69) scale(0.71 1)">1</text><text class="cls-6" transform="translate(4.61 37.71) scale(0.71 1)">8</text><polyline class="cls-7" points="117.59 40.5 117.59 10.52 98.26 10.52"/><circle class="cls-2" cx="117.59" cy="40.19" r="0.97"/></svg>