<svg id="Picture" xmlns="http://www.w3.org/2000/svg" viewBox="0 0 129.4 171.88"><defs><style>.cls-1{fill:#bcbec0;}.cls-2,.cls-6{fill:#ffd64f;}.cls-3{fill:none;stroke:#231f20;stroke-width:0.5px;}.cls-4{fill:#222c33;}.cls-5{fill:#69767e;}.cls-6{font-size:10.12px;font-family:Source Sans Pro;}</style></defs><title>wealthGap</title><path class="cls-1" d="M56.88,96.28c0.65,2.63-.51,6.76-2.88,10l6.32,3.54c2.93-4.3,5.68-8,5.55-14.3Z"/><path class="cls-1" d="M54,106.29l6.32,3.54s3.38,3.61,1.52,7.11l-10.42-6.45Z"/><path class="cls-1" d="M62.34,96.78C66.72,103,69.62,107,71,110.46l6.75-2.58c-0.85-3.29-3-8-7.32-13.76Z"/><path class="cls-1" d="M71.06,110.34l6.76-2.62s4.94-.3,6.44,3.35L72.64,115Z"/><path class="cls-1" d="M74.39,77.59c0-2.44-4.13-4.41-9.24-4.41s-9.23,2-9.23,4.41V96.53H74.49Z"/><path class="cls-1" d="M62,73.93s3.58,12.4,3.58,11.85,3.31-12.4,3.31-12.4Z"/><path class="cls-2" d="M65.56,85.78c0-.22.54-2.29,1.18-4.67l-0.9-3.59,1-3.44H63.37L64,75l1.12,2.48-0.68,4.82A30.54,30.54,0,0,0,65.56,85.78Z"/><path class="cls-1" d="M56.28,83.69a29.84,29.84,0,0,0-7,5.93l-3.64-4.19a33.28,33.28,0,0,1,7.61-6.15Z"/><ellipse class="cls-1" cx="65" cy="68.25" rx="5.7" ry="6.77"/><path class="cls-1" d="M61.88,81.49c-4.6,1.87-10.29,6.56-10.29,6.56l-4.25-5.27s6.95-6.22,11.09-8.07Z"/><circle class="cls-3" cx="43.25" cy="93.2" r="5" transform="translate(-58.79 81.17) rotate(-58.38)"/><rect class="cls-4" x="26.77" y="93.48" width="22.57" height="14.69" transform="translate(58.52 -4.98) rotate(31.62)"/><circle class="cls-1" cx="46.53" cy="88.32" r="3.9" transform="translate(-37.23 34) rotate(-29.25)"/><path class="cls-2" d="M56,69.19s2.07-.3,8-3.11A96.68,96.68,0,0,0,74.78,60L68,61.34,63.53,56.6l-6.81,4.59,1.18,4.89Z"/><polygon class="cls-5" points="57.91 66.08 67.97 61.34 66.05 59.37 57.38 64.03 57.91 66.08"/><text class="cls-6" transform="translate(35.33 101.62) rotate(31.62)">$</text></svg>