<svg id="Picture" xmlns="http://www.w3.org/2000/svg" xmlns:xlink="http://www.w3.org/1999/xlink" viewBox="0 0 129.4 171.88"><defs><style>.cls-1,.cls-10,.cls-8,.cls-9{fill:none;}.cls-2{clip-path:url(#clip-path);}.cls-3{fill:#bcbec0;}.cls-4,.cls-6{fill:#ffd64f;}.cls-5{fill:#69767e;}.cls-10,.cls-6{fill-rule:evenodd;}.cls-7{fill:#939598;}.cls-10,.cls-8,.cls-9{stroke:#231f20;stroke-width:0.25px;}.cls-9{stroke-dasharray:0.5 2;}.cls-11{fill:#ffcb05;}</style><clipPath id="clip-path"><rect class="cls-1" x="19.56" y="62.07" width="12.19" height="23.1"/></clipPath></defs><title>wealthGap</title><g class="cls-2"><path class="cls-3" d="M20.19,89.43c0.43,1.73-.34,4.44-1.89,6.58l4.16,2.33c1.93-2.83,3.73-5.29,3.65-9.4Z"/><path class="cls-3" d="M18.3,96l4.16,2.33s2.22,2.37,1,4.67L16.6,98.77Z"/><path class="cls-3" d="M23.78,89.76c2.88,4.07,4.79,6.73,5.67,9l4.44-1.7a27.24,27.24,0,0,0-4.81-9Z"/><path class="cls-3" d="M29.51,98.68L34,97s3.25-.2,4.24,2.21l-7.64,2.58Z"/><path class="cls-3" d="M31.7,77.14c0-1.6-2.72-2.9-6.08-2.9s-6.07,1.3-6.07,2.9V89.6H31.77Z"/><path class="cls-3" d="M23.54,74.74s2.36,8.16,2.36,7.79,2.17-8.16,2.17-8.16Z"/><path class="cls-4" d="M25.9,82.53c0-.15.36-1.51,0.78-3.07L26.09,77.1l0.63-2.26H24.46l0.42,0.63,0.74,1.63-0.45,3.17A20.08,20.08,0,0,0,25.9,82.53Z"/><ellipse class="cls-3" cx="25.53" cy="71" rx="3.75" ry="4.45"/><path class="cls-3" d="M23.47,79.71A33.26,33.26,0,0,0,16.71,84l-2.79-3.46s4.57-4.09,7.29-5.3Z"/><path class="cls-4" d="M19.6,71.62a23,23,0,0,0,5.26-2,63.57,63.57,0,0,0,7.11-4l-4.48.88-2.92-3.12-4.48,3,0.78,3.21Z"/><polygon class="cls-5" points="20.86 69.58 27.48 66.46 26.21 65.16 20.52 68.23 20.86 69.58"/></g><polygon class="cls-6" points="26.96 71.56 23.89 73.2 29.38 72.06 26.96 71.56"/><rect class="cls-7" x="9.06" y="126.79" width="2.05" height="15.12"/><rect class="cls-7" x="15.51" y="116.37" width="2.05" height="25.54"/><rect class="cls-7" x="21.72" y="119.46" width="2.05" height="22.46"/><rect class="cls-7" x="28.16" y="123.22" width="2.05" height="18.7"/><rect class="cls-7" x="34.32" y="114.4" width="2.05" height="27.52"/><rect class="cls-7" x="40.82" y="109.4" width="2.05" height="32.52"/><rect class="cls-7" x="47.26" y="104.51" width="2.05" height="37.41"/><rect class="cls-7" x="53.47" y="97.5" width="2.05" height="44.42"/><rect class="cls-7" x="59.68" y="88.46" width="2.05" height="53.46"/><rect class="cls-7" x="66.13" y="104.51" width="2.05" height="37.41"/><rect class="cls-7" x="72.57" y="94.54" width="2.05" height="47.38"/><rect class="cls-7" x="78.58" y="84.63" width="2.05" height="57.28"/><rect class="cls-7" x="84.96" y="83.98" width="2.05" height="57.94"/><rect class="cls-7" x="91.34" y="74.32" width="2.05" height="67.6"/><rect class="cls-7" x="97.72" y="64.22" width="2.05" height="77.7"/><rect class="cls-7" x="104.11" y="55.4" width="2.05" height="86.52"/><rect class="cls-7" x="110.49" y="56.25" width="2.05" height="85.67"/><rect class="cls-7" x="116.87" y="45.19" width="2.05" height="96.72"/><line class="cls-8" x1="122.64" y1="46.88" x2="122.39" y2="46.88"/><line class="cls-9" x1="120.4" y1="46.88" x2="6.57" y2="46.88"/><line class="cls-8" x1="5.57" y1="46.88" x2="5.32" y2="46.88"/><line class="cls-8" x1="122.64" y1="70.85" x2="122.39" y2="70.85"/><line class="cls-9" x1="120.4" y1="70.85" x2="6.57" y2="70.85"/><line class="cls-8" x1="5.57" y1="70.85" x2="5.32" y2="70.85"/><line class="cls-8" x1="122.64" y1="94.54" x2="122.39" y2="94.54"/><line class="cls-9" x1="120.4" y1="94.54" x2="6.57" y2="94.54"/><line class="cls-8" x1="5.57" y1="94.54" x2="5.32" y2="94.54"/><line class="cls-8" x1="122.64" y1="118.23" x2="122.39" y2="118.23"/><line class="cls-9" x1="120.4" y1="118.23" x2="6.57" y2="118.23"/><line class="cls-8" x1="5.57" y1="118.23" x2="5.32" y2="118.23"/><line class="cls-8" x1="122.64" y1="142.19" x2="5.32" y2="142.19"/><polyline class="cls-10" points="118.07 46.23 118.07 18.25 98.74 18.25"/><circle class="cls-11" cx="118.07" cy="45.92" r="0.97"/></svg>